<svg width="100" height="100" viewBox="0 0 100 100" fill="none" xmlns="http://www.w3.org/2000/svg">
<path fill-rule="evenodd" clip-rule="evenodd" d="M50 8.92857C39.1072 8.92857 28.6605 13.2557 20.9581 20.9581C13.2557 28.6605 8.92857 39.1072 8.92857 50C8.92857 60.8928 13.2557 71.3395 20.9581 79.0419C28.6605 86.7443 39.1072 91.0714 50 91.0714C60.8928 91.0714 71.3395 86.7443 79.0419 79.0419C86.7443 71.3395 91.0714 60.8928 91.0714 50C91.0714 39.1072 86.7443 28.6605 79.0419 20.9581C71.3395 13.2557 60.8928 8.92857 50 8.92857ZM0 50C0 36.7392 5.26784 24.0215 14.6447 14.6447C24.0215 5.26784 36.7392 0 50 0C63.2608 0 75.9785 5.26784 85.3553 14.6447C94.7322 24.0215 100 36.7392 100 50C100 63.2608 94.7322 75.9785 85.3553 85.3553C75.9785 94.7322 63.2608 100 50 100C36.7392 100 24.0215 94.7322 14.6447 85.3553C5.26784 75.9785 0 63.2608 0 50ZM33.9286 30.3571C35.823 30.3571 37.6398 31.1097 38.9793 32.4492C40.3189 33.7888 41.0714 35.6056 41.0714 37.5C41.0714 39.3944 40.3189 41.2112 38.9793 42.5508C37.6398 43.8903 35.823 44.6429 33.9286 44.6429C32.0342 44.6429 30.2174 43.8903 28.8778 42.5508C27.5383 41.2112 26.7857 39.3944 26.7857 37.5C26.7857 35.6056 27.5383 33.7888 28.8778 32.4492C30.2174 31.1097 32.0342 30.3571 33.9286 30.3571ZM58.9286 37.5C58.9286 39.3944 59.6811 41.2112 61.0207 42.5508C62.3602 43.8903 64.177 44.6429 66.0714 44.6429C67.9658 44.6429 69.7826 43.8903 71.1222 42.5508C72.4617 41.2112 73.2143 39.3944 73.2143 37.5C73.2143 35.6056 72.4617 33.7888 71.1222 32.4492C69.7826 31.1097 67.9658 30.3571 66.0714 30.3571C64.177 30.3571 62.3602 31.1097 61.0207 32.4492C59.6811 33.7888 58.9286 35.6056 58.9286 37.5ZM50 51.7857C45.4503 51.7798 40.9576 52.799 36.8559 54.7676C32.7541 56.7363 29.1486 59.6038 26.3071 63.1571C25.4177 64.2654 25.005 65.6815 25.1597 67.0941C25.3144 68.5066 26.0239 69.7999 27.1321 70.6893C28.2404 71.5787 29.6565 71.9915 31.0691 71.8367C32.4816 71.682 33.7749 70.9725 34.6643 69.8643C36.5015 67.5618 38.8348 65.7038 41.4901 64.4287C44.1455 63.1536 47.0544 62.4943 50 62.5C56.2 62.5 61.7214 65.3643 65.3286 69.8571C65.762 70.4247 66.3045 70.9 66.9243 71.2548C67.544 71.6097 68.2285 71.8371 68.9374 71.9236C69.6463 72.0101 70.3653 71.954 71.0522 71.7586C71.7392 71.5631 72.3801 71.2323 72.9372 70.7856C73.4945 70.3389 73.9567 69.7853 74.2969 69.1573C74.637 68.5294 74.8481 67.8397 74.9179 67.129C74.9876 66.4183 74.9145 65.7007 74.7029 65.0186C74.4913 64.3365 74.1455 63.7036 73.6857 63.1571C70.845 59.6047 67.2407 56.7378 63.1402 54.7692C59.0397 52.8006 54.5485 51.7808 50 51.7857Z" fill="#FB4141"/>
</svg>
