<svg width="116" height="116" viewBox="0 0 116 116" fill="none" xmlns="http://www.w3.org/2000/svg">
<g clip-path="url(#clip0_131_53)">
<path d="M74.111 83.7777C74.111 84.6323 73.7715 85.4518 73.1672 86.0561C72.563 86.6604 71.7434 86.9999 70.8888 86.9999H25.7777C25.0688 86.9999 24.3921 87.6443 23.8121 88.0632L12.8888 96.6666V45.111C12.8888 44.2564 13.2283 43.4368 13.8325 42.8325C14.4368 42.2283 15.2564 41.8888 16.111 41.8888H28.5488V35.4443H16.111C13.5472 35.4443 11.0885 36.4628 9.27564 38.2756C7.46279 40.0885 6.44434 42.5472 6.44434 45.111V103.111C6.44913 103.709 6.62049 104.295 6.93919 104.801C7.2579 105.308 7.71137 105.715 8.24878 105.979C8.76652 106.214 9.33736 106.308 9.90331 106.252C10.4693 106.195 11.0101 105.99 11.471 105.657L28.0654 93.4443H71.3721C72.5934 93.4804 73.809 93.2654 74.9438 92.8126C76.0786 92.3598 77.1083 91.6788 77.9692 90.8119C78.8301 89.945 79.5039 88.9105 79.9487 87.7726C80.3936 86.6347 80.6001 85.4175 80.5555 84.1966V80.5555H74.111V83.7777Z" fill="#5CB338"/>
<path d="M99.8888 12.8889H45.111C42.5472 12.8889 40.0885 13.9074 38.2756 15.7202C36.4628 17.5331 35.4443 19.9918 35.4443 22.5556V61.2223C35.4443 63.786 36.4628 66.2448 38.2756 68.0576C40.0885 69.8705 42.5472 70.8889 45.111 70.8889H88.7721L104.174 82.8434C104.632 83.1819 105.172 83.393 105.738 83.4553C106.304 83.5176 106.876 83.4287 107.397 83.1978C107.945 82.9367 108.408 82.5258 108.733 82.0127C109.058 81.4996 109.232 80.9052 109.233 80.2978V22.5556C109.235 20.0467 108.261 17.6355 106.517 15.8317C104.773 14.0278 102.396 12.9725 99.8888 12.8889ZM103.111 73.9178L91.8332 65.1211C91.2708 64.6846 90.5796 64.4467 89.8677 64.4445H45.111C44.2564 64.4445 43.4368 64.105 42.8325 63.5007C42.2283 62.8964 41.8888 62.0768 41.8888 61.2223V22.5556C41.8888 21.701 42.2283 20.8814 42.8325 20.2771C43.4368 19.6728 44.2564 19.3334 45.111 19.3334H99.8888C100.75 19.4115 101.553 19.8019 102.147 20.431C102.74 21.0601 103.083 21.8845 103.111 22.7489V73.9178Z" fill="#5CB338"/>
</g>
<defs>
<clipPath id="clip0_131_53">
<rect width="116" height="116" fill="white"/>
</clipPath>
</defs>
</svg>
