<svg width="126" height="126" viewBox="0 0 126 126" fill="none" xmlns="http://www.w3.org/2000/svg">
<path d="M40.9871 40.9874C42.1592 39.8157 43.7486 39.1575 45.4059 39.1575C47.0632 39.1575 48.6526 39.8157 49.8246 40.9874L63.2871 54.4436L76.7434 40.9874C77.3199 40.3905 78.0096 39.9143 78.7721 39.5868C79.5346 39.2592 80.3548 39.0868 81.1846 39.0796C82.0145 39.0724 82.8375 39.2305 83.6056 39.5448C84.3737 39.859 85.0715 40.3231 85.6584 40.9099C86.2452 41.4968 86.7093 42.1946 87.0235 42.9627C87.3378 43.7308 87.4959 44.5538 87.4887 45.3837C87.4815 46.2135 87.3091 47.0337 86.9815 47.7962C86.654 48.5587 86.1778 49.2484 85.5809 49.8249L72.1246 63.2874L85.5809 76.7436C86.7194 77.9224 87.3493 79.5012 87.3351 81.1399C87.3209 82.7786 86.6636 84.3462 85.5048 85.505C84.346 86.6638 82.7784 87.3211 81.1397 87.3354C79.5009 87.3496 77.9222 86.7196 76.7434 85.5811L63.2871 72.1249L49.8246 85.5811C48.6414 86.6923 47.0722 87.2996 45.4492 87.2744C43.8261 87.2491 42.2766 86.5935 41.1284 85.4461C39.9802 84.2987 39.3234 82.7496 39.297 81.1266C39.2707 79.5036 39.8768 77.934 40.9871 76.7499L54.4434 63.2936L40.9871 49.8311C39.8154 48.6591 39.1572 47.0697 39.1572 45.4124C39.1572 43.7551 39.8154 42.1657 40.9871 40.9936" fill="#FB4141"/>
<path fill-rule="evenodd" clip-rule="evenodd" d="M63 0.5C28.4813 0.5 0.5 28.4813 0.5 63C0.5 97.5187 28.4813 125.5 63 125.5C97.5187 125.5 125.5 97.5187 125.5 63C125.5 28.4813 97.5187 0.5 63 0.5ZM13 63C13 49.7392 18.2678 37.0215 27.6447 27.6447C37.0215 18.2678 49.7392 13 63 13C76.2608 13 88.9785 18.2678 98.3553 27.6447C107.732 37.0215 113 49.7392 113 63C113 76.2608 107.732 88.9785 98.3553 98.3553C88.9785 107.732 76.2608 113 63 113C49.7392 113 37.0215 107.732 27.6447 98.3553C18.2678 88.9785 13 76.2608 13 63Z" fill="#FB4141"/>
</svg>
