<svg width="100" height="101" viewBox="0 0 100 101" fill="none" xmlns="http://www.w3.org/2000/svg">
<path d="M50 0.609375C22.379 0.609375 0 22.9395 0 50.5C0 78.0605 22.379 100.391 50 100.391C77.621 100.391 100 78.0605 100 50.5C100 22.9395 77.621 0.609375 50 0.609375ZM50 90.7344C27.7621 90.7344 9.67742 72.6893 9.67742 50.5C9.67742 28.3107 27.7621 10.2656 50 10.2656C72.2379 10.2656 90.3226 28.3107 90.3226 50.5C90.3226 72.6893 72.2379 90.7344 50 90.7344ZM33.871 47.2812C37.4395 47.2812 40.3226 44.4045 40.3226 40.8438C40.3226 37.283 37.4395 34.4062 33.871 34.4062C30.3024 34.4062 27.4194 37.283 27.4194 40.8438C27.4194 44.4045 30.3024 47.2812 33.871 47.2812ZM66.129 47.2812C69.6976 47.2812 72.5806 44.4045 72.5806 40.8438C72.5806 37.283 69.6976 34.4062 66.129 34.4062C62.5605 34.4062 59.6774 37.283 59.6774 40.8438C59.6774 44.4045 62.5605 47.2812 66.129 47.2812ZM66.9355 61.8863C62.7419 66.9156 56.5524 69.8125 50 69.8125C43.4476 69.8125 37.2581 66.9357 33.0645 61.8863C31.3508 59.8344 28.2863 59.5729 26.25 61.2627C24.1935 62.9727 23.9315 66.0103 25.625 68.0623C31.6734 75.3045 40.5645 79.4486 50 79.4486C59.4355 79.4486 68.3266 75.3045 74.375 68.0623C76.0887 66.0103 75.8064 62.9727 73.75 61.2627C71.7137 59.5729 68.6492 59.8344 66.9355 61.8863Z" fill="#5CB338"/>
</svg>
