<svg width="120" height="120" viewBox="0 0 120 120" fill="none" xmlns="http://www.w3.org/2000/svg">
<path d="M56 0V16H64V0H56ZM26.832 29.168L14.832 17.168L9.168 22.832L21.168 34.832L26.832 29.168ZM98.832 34.832L110.832 22.832L105.168 17.168L93.168 29.168L98.832 34.832ZM60 24C52.3744 24.0004 45.0048 26.7513 39.2441 31.7478C33.4835 36.7443 29.7184 43.651 28.64 51.2L28.56 51.76C27.9514 55.9659 28.1974 60.2514 29.2834 64.36C30.3693 68.4686 32.2728 72.316 34.88 75.672C37.944 79.632 40 83.416 40 87.208V100C40 101.061 40.4214 102.078 41.1716 102.828C41.9217 103.579 42.9391 104 44 104H76C77.0609 104 78.0783 103.579 78.8284 102.828C79.5786 102.078 80 101.061 80 100V87.208C80 83.416 82.056 79.632 85.12 75.672C90.16 69.16 92.704 60.672 91.44 51.752L91.36 51.192C90.2799 43.6445 86.514 36.7397 80.7535 31.7448C74.993 26.7499 67.6244 24.0001 60 24ZM0 64H16V56H0V64ZM104 64H120V56H104V64ZM48 120H72V112H48V120Z" fill="#ECE852"/>
</svg>
