<svg width="79" height="112" viewBox="0 0 79 112" fill="none" xmlns="http://www.w3.org/2000/svg">
<g clip-path="url(#clip0_131_32)">
<path d="M39.0354 78.4C44.9494 78.3938 50.6194 76.0318 54.8012 71.8324C58.9831 67.6329 61.3351 61.939 61.3413 56V22.4C61.3413 16.4592 58.9912 10.7616 54.808 6.56081C50.6249 2.35999 44.9513 0 39.0354 0C33.1195 0 27.4459 2.35999 23.2627 6.56081C19.0796 10.7616 16.7295 16.4592 16.7295 22.4V56C16.7356 61.939 19.0877 67.6329 23.2695 71.8324C27.4514 76.0318 33.1214 78.3938 39.0354 78.4Z" fill="#5CB338"/>
<path d="M78.0706 56V44.8C78.0706 43.3147 77.4831 41.8904 76.4373 40.8402C75.3915 39.7899 73.9731 39.2 72.4941 39.2C71.0152 39.2 69.5967 39.7899 68.551 40.8402C67.5052 41.8904 66.9176 43.3147 66.9176 44.8V56C66.9176 63.426 63.9801 70.5479 58.7511 75.799C53.5221 81.05 46.4302 84 39.0353 84C31.6404 84 24.5484 81.05 19.3195 75.799C14.0905 70.5479 11.1529 63.426 11.1529 56V44.8C11.1529 43.3147 10.5654 41.8904 9.51963 40.8402C8.47384 39.7899 7.05544 39.2 5.57647 39.2C4.0975 39.2 2.6791 39.7899 1.63331 40.8402C0.587519 41.8904 0 43.3147 0 44.8L0 56C0.0158252 65.38 3.37811 74.4438 9.47725 81.5481C15.5764 88.6525 24.0086 93.3269 33.2451 94.724L33.4588 94.752V100.8H16.7294C15.9971 100.8 15.272 100.945 14.5954 101.226C13.9188 101.508 13.3041 101.92 12.7863 102.44C12.2684 102.96 11.8577 103.578 11.5774 104.257C11.2972 104.936 11.1529 105.665 11.1529 106.4C11.1529 107.135 11.2972 107.864 11.5774 108.543C11.8577 109.222 12.2684 109.84 12.7863 110.36C13.3041 110.88 13.9188 111.292 14.5954 111.574C15.272 111.855 15.9971 112 16.7294 112H61.3412C62.0735 112 62.7986 111.855 63.4752 111.574C64.1518 111.292 64.7665 110.88 65.2843 110.36C65.8022 109.84 66.2129 109.222 66.4932 108.543C66.7734 107.864 66.9176 107.135 66.9176 106.4C66.9176 105.665 66.7734 104.936 66.4932 104.257C66.2129 103.578 65.8022 102.96 65.2843 102.44C64.7665 101.92 64.1518 101.508 63.4752 101.226C62.7986 100.945 62.0735 100.8 61.3412 100.8H44.6118V94.752C63.6182 91.91 78.0381 75.6513 78.0706 56.0046V56Z" fill="#5CB338"/>
</g>
<defs>
<clipPath id="clip0_131_32">
<rect width="79" height="112" fill="white"/>
</clipPath>
</defs>
</svg>
