<svg width="39" height="55" viewBox="0 0 39 55" fill="none" xmlns="http://www.w3.org/2000/svg">
<g clip-path="url(#clip0_15_3195)">
<path d="M19.2706 38.5C22.1901 38.497 24.9892 37.3371 27.0537 35.2748C29.1181 33.2126 30.2793 30.4164 30.2823 27.5V11C30.2823 8.08262 29.1222 5.28473 27.057 3.22183C24.9919 1.15893 22.1911 0 19.2706 0C16.3501 0 13.5492 1.15893 11.4841 3.22183C9.41895 5.28473 8.25879 8.08262 8.25879 11V27.5C8.26183 30.4164 9.42297 33.2126 11.4874 35.2748C13.5519 37.3371 16.351 38.497 19.2706 38.5Z" fill="white"/>
<path d="M38.5412 27.5V22C38.5412 21.2707 38.2511 20.5712 37.7349 20.0555C37.2186 19.5397 36.5184 19.25 35.7882 19.25C35.0581 19.25 34.3579 19.5397 33.8416 20.0555C33.3253 20.5712 33.0353 21.2707 33.0353 22V27.5C33.0353 31.1467 31.5851 34.6441 29.0037 37.2227C26.4223 39.8013 22.9212 41.25 19.2706 41.25C15.62 41.25 12.1189 39.8013 9.53747 37.2227C6.95609 34.6441 5.50588 31.1467 5.50588 27.5V22C5.50588 21.2707 5.21584 20.5712 4.69956 20.0555C4.18329 19.5397 3.48307 19.25 2.75294 19.25C2.02282 19.25 1.32259 19.5397 0.806318 20.0555C0.290041 20.5712 0 21.2707 0 22L0 27.5C0.00781244 32.1063 1.66768 36.5573 4.67864 40.046C7.68961 43.5347 11.8524 45.8302 16.4121 46.5163L16.5176 46.53V49.5H8.25882C7.8973 49.5 7.53932 49.5711 7.20532 49.7093C6.87132 49.8475 6.56783 50.0501 6.3122 50.3055C6.05657 50.5608 5.85379 50.864 5.71544 51.1976C5.57709 51.5313 5.50588 51.8889 5.50588 52.25C5.50588 52.6111 5.57709 52.9687 5.71544 53.3024C5.85379 53.636 6.05657 53.9392 6.3122 54.1945C6.56783 54.4499 6.87132 54.6525 7.20532 54.7907C7.53932 54.9289 7.8973 55 8.25882 55H30.2824C30.6439 55 31.0019 54.9289 31.3359 54.7907C31.6699 54.6525 31.9733 54.4499 32.229 54.1945C32.4846 53.9392 32.6874 53.636 32.8257 53.3024C32.9641 52.9687 33.0353 52.6111 33.0353 52.25C33.0353 51.8889 32.9641 51.5313 32.8257 51.1976C32.6874 50.864 32.4846 50.5608 32.229 50.3055C31.9733 50.0501 31.6699 49.8475 31.3359 49.7093C31.0019 49.5711 30.6439 49.5 30.2824 49.5H22.0235V46.53C31.4065 45.1344 38.5251 37.1502 38.5412 27.5023V27.5Z" fill="white"/>
</g>
<defs>
<clipPath id="clip0_15_3195">
<rect width="39" height="55" fill="white"/>
</clipPath>
</defs>
</svg>
