<svg width="42" height="42" viewBox="0 0 42 42" fill="none" xmlns="http://www.w3.org/2000/svg">
<path d="M38.4582 22.375C38.1242 21.9948 37.94 21.506 37.94 21C37.94 20.4939 38.1242 20.0052 38.4582 19.625L41.1249 16.625C41.4187 16.2972 41.6012 15.8848 41.6461 15.4469C41.691 15.009 41.5961 14.5681 41.3749 14.1875L37.2082 6.97915C36.9892 6.59899 36.6559 6.29764 36.2556 6.11808C35.8553 5.93852 35.4086 5.8899 34.979 5.97915L31.0624 6.77082C30.564 6.87379 30.0452 6.79079 29.6038 6.53748C29.1624 6.28417 28.829 5.87807 28.6665 5.39582L27.3957 1.58332C27.2559 1.16952 26.9897 0.81012 26.6345 0.555906C26.2794 0.301691 25.8533 0.165524 25.4165 0.166652H17.0832C16.6289 0.142939 16.1793 0.268582 15.8031 0.524389C15.4269 0.780197 15.1448 1.15211 14.9999 1.58332L13.8332 5.39582C13.6707 5.87807 13.3373 6.28417 12.8959 6.53748C12.4546 6.79079 11.9357 6.87379 11.4374 6.77082L7.41653 5.97915C7.00935 5.92161 6.59424 5.98587 6.22351 6.16382C5.85277 6.34177 5.54299 6.62546 5.3332 6.97915L1.16653 14.1875C0.939782 14.5638 0.837828 15.0022 0.875246 15.44C0.912663 15.8778 1.08754 16.2926 1.37486 16.625L4.0207 19.625C4.3547 20.0052 4.53889 20.4939 4.53889 21C4.53889 21.506 4.3547 21.9948 4.0207 22.375L1.37486 25.375C1.08754 25.7074 0.912663 26.1221 0.875246 26.5599C0.837828 26.9977 0.939782 27.4361 1.16653 27.8125L5.3332 35.0208C5.55215 35.401 5.88553 35.7023 6.28581 35.8819C6.68608 36.0615 7.13283 36.1101 7.56237 36.0208L11.479 35.2291C11.9774 35.1262 12.4962 35.2092 12.9376 35.4625C13.379 35.7158 13.7124 36.1219 13.8749 36.6041L15.1457 40.4166C15.2907 40.8479 15.5728 41.2198 15.949 41.4756C16.3251 41.7314 16.7747 41.857 17.229 41.8333H25.5624C25.9991 41.8344 26.4252 41.6983 26.7803 41.4441C27.1355 41.1898 27.4018 40.8304 27.5415 40.4166L28.8124 36.6041C28.9749 36.1219 29.3083 35.7158 29.7496 35.4625C30.191 35.2092 30.7098 35.1262 31.2082 35.2291L35.1249 36.0208C35.5544 36.1101 36.0011 36.0615 36.4014 35.8819C36.8017 35.7023 37.1351 35.401 37.354 35.0208L41.5207 27.8125C41.7419 27.4319 41.8368 26.991 41.7919 26.5531C41.747 26.1152 41.5645 25.7028 41.2707 25.375L38.4582 22.375ZM35.354 25.1667L37.0207 27.0416L34.354 31.6667L31.8957 31.1666C30.3952 30.8599 28.8344 31.1148 27.5094 31.8829C26.1845 32.651 25.1877 33.8788 24.7082 35.3333L23.9165 37.6666H18.5832L17.8332 35.2917C17.3537 33.8372 16.3569 32.6093 15.032 31.8412C13.707 31.0732 12.1462 30.8183 10.6457 31.125L8.18736 31.625L5.47903 27.0208L7.1457 25.1458C8.1706 23.9999 8.73722 22.5165 8.73722 20.9792C8.73722 19.4418 8.1706 17.9584 7.1457 16.8125L5.47903 14.9375L8.1457 10.3542L10.604 10.8542C12.1045 11.1609 13.6653 10.906 14.9903 10.1379C16.3152 9.36981 17.3121 8.14198 17.7915 6.68748L18.5832 4.33332H23.9165L24.7082 6.70832C25.1877 8.16282 26.1845 9.39064 27.5094 10.1587C28.8344 10.9268 30.3952 11.1817 31.8957 10.875L34.354 10.375L37.0207 15L35.354 16.875C34.3406 18.0182 33.7811 19.4931 33.7811 21.0208C33.7811 22.5486 34.3406 24.0234 35.354 25.1667ZM21.2499 12.6667C19.6017 12.6667 17.9905 13.1554 16.6201 14.0711C15.2497 14.9867 14.1816 16.2882 13.5509 17.811C12.9201 19.3337 12.7551 21.0092 13.0767 22.6257C13.3982 24.2422 14.1919 25.7271 15.3573 26.8925C16.5227 28.058 18.0076 28.8517 19.6241 29.1732C21.2406 29.4947 22.9162 29.3297 24.4389 28.699C25.9616 28.0683 27.2631 27.0001 28.1788 25.6297C29.0945 24.2593 29.5832 22.6482 29.5832 21C29.5832 18.7898 28.7052 16.6702 27.1424 15.1074C25.5796 13.5446 23.46 12.6667 21.2499 12.6667ZM21.2499 25.1667C20.4258 25.1667 19.6202 24.9223 18.935 24.4644C18.2498 24.0066 17.7157 23.3559 17.4004 22.5945C17.085 21.8331 17.0025 20.9954 17.1633 20.1871C17.324 19.3789 17.7209 18.6364 18.3036 18.0537C18.8863 17.471 19.6287 17.0742 20.437 16.9134C21.2452 16.7526 22.083 16.8351 22.8444 17.1505C23.6057 17.4659 24.2565 17.9999 24.7143 18.6851C25.1722 19.3703 25.4165 20.1759 25.4165 21C25.4165 22.1051 24.9775 23.1649 24.1961 23.9463C23.4147 24.7277 22.3549 25.1667 21.2499 25.1667Z" fill="white"/>
</svg>
