<svg width="87" height="113" viewBox="0 0 87 113" fill="none" xmlns="http://www.w3.org/2000/svg">
<path d="M24.8753 92.0737H62.1253C63.0111 92.0737 63.7498 91.7799 64.3417 91.1922C64.9336 90.6044 65.2295 89.8657 65.2295 88.9758C65.2295 88.0859 64.9336 87.3471 64.3417 86.7594C63.7498 86.1717 63.0111 85.8758 62.1253 85.8716H24.8753C23.9937 85.8716 23.2549 86.1676 22.6589 86.7594C22.0629 87.3513 21.767 88.0901 21.7712 88.9758C21.7753 89.8615 22.0712 90.5982 22.6589 91.186C23.2467 91.7737 23.9855 92.0717 24.8753 92.08M24.8753 75.839H62.1253C63.0111 75.839 63.7498 75.543 64.3417 74.9512C64.9336 74.3593 65.2295 73.6226 65.2295 72.741C65.2295 71.8594 64.9336 71.1206 64.3417 70.5246C63.7498 69.9286 63.0111 69.6327 62.1253 69.6368H24.8753C23.9937 69.6368 23.2549 69.9328 22.6589 70.5246C22.0629 71.1165 21.767 71.8553 21.7712 72.741C21.7753 73.6267 22.0712 74.3634 22.6589 74.9512C23.2467 75.5389 23.9855 75.8369 24.8753 75.8452M76.926 112.375H10.0747C7.21469 112.375 4.82862 111.419 2.91645 109.507C1.00428 107.595 0.0461311 105.209 0.0419922 102.349V10.6515C0.0419922 7.79562 1.00014 5.41163 2.91645 3.49946C4.83276 1.58729 7.21883 0.629139 10.0747 0.625H76.9322C79.788 0.625 82.1741 1.58315 84.0904 3.49946C86.0067 5.41576 86.9628 7.80183 86.9587 10.6577V102.349C86.9587 105.204 86.0026 107.59 84.0904 109.507C82.1782 111.423 79.7901 112.379 76.926 112.375ZM10.0684 106.167H76.9322C78.0456 106.167 78.9603 105.809 79.6763 105.093C80.3923 104.377 80.7503 103.462 80.7503 102.349V10.6515C80.7503 9.5381 80.3923 8.6234 79.6763 7.90737C78.9603 7.19135 78.0456 6.83333 76.9322 6.83333H10.0684C8.95509 6.83333 8.04039 7.19135 7.32437 7.90737C6.60834 8.6234 6.25033 9.54017 6.25033 10.6577V102.349C6.25033 103.462 6.60834 104.377 7.32437 105.093C8.04039 105.809 8.95716 106.167 10.0747 106.167" fill="#5CB338"/>
<path d="M42.75 10C43.5052 10.0001 44.2341 10.2774 44.7985 10.7792C45.3628 11.281 45.7234 11.9726 45.8117 12.7226L45.8333 13.0833V62.4167C45.8325 63.2025 45.5315 63.9584 44.9921 64.5299C44.4526 65.1013 43.7152 65.4452 42.9307 65.4913C42.1462 65.5373 41.3737 65.2821 40.771 64.7777C40.1684 64.2733 39.7811 63.5578 39.6882 62.7774L39.6667 62.4167V13.0833C39.6667 12.2656 39.9915 11.4813 40.5698 10.9031C41.148 10.3249 41.9322 10 42.75 10ZM30.4167 19.25C31.2344 19.25 32.0187 19.5749 32.5969 20.1531C33.1751 20.7313 33.5 21.5156 33.5 22.3333V53.1667C33.5 53.9844 33.1751 54.7687 32.5969 55.3469C32.0187 55.9252 31.2344 56.25 30.4167 56.25C29.5989 56.25 28.8147 55.9252 28.2364 55.3469C27.6582 54.7687 27.3333 53.9844 27.3333 53.1667V22.3333C27.3333 21.5156 27.6582 20.7313 28.2364 20.1531C28.8147 19.5749 29.5989 19.25 30.4167 19.25ZM55.0833 19.25C55.9011 19.25 56.6853 19.5749 57.2636 20.1531C57.8418 20.7313 58.1667 21.5156 58.1667 22.3333V53.1667C58.1667 53.9844 57.8418 54.7687 57.2636 55.3469C56.6853 55.9252 55.9011 56.25 55.0833 56.25C54.2656 56.25 53.4813 55.9252 52.9031 55.3469C52.3248 54.7687 52 53.9844 52 53.1667V22.3333C52 21.5156 52.3248 20.7313 52.9031 20.1531C53.4813 19.5749 54.2656 19.25 55.0833 19.25ZM18.0833 28.5C18.9011 28.5 19.6853 28.8249 20.2636 29.4031C20.8418 29.9813 21.1667 30.7656 21.1667 31.5833V43.9167C21.1667 44.7344 20.8418 45.5187 20.2636 46.0969C19.6853 46.6751 18.9011 47 18.0833 47C17.2656 47 16.4813 46.6751 15.9031 46.0969C15.3249 45.5187 15 44.7344 15 43.9167V31.5833C15 30.7656 15.3249 29.9813 15.9031 29.4031C16.4813 28.8249 17.2656 28.5 18.0833 28.5ZM67.4167 28.5C68.1719 28.5001 68.9008 28.7774 69.4651 29.2792C70.0295 29.781 70.3901 30.4726 70.4784 31.2226L70.5 31.5833V43.9167C70.4991 44.7025 70.1982 45.4584 69.6587 46.0299C69.1192 46.6013 68.3819 46.9452 67.5974 46.9913C66.8128 47.0373 66.0403 46.7821 65.4377 46.2777C64.835 45.7733 64.4477 45.0578 64.3549 44.2774L64.3333 43.9167V31.5833C64.3333 30.7656 64.6582 29.9813 65.2364 29.4031C65.8147 28.8249 66.5989 28.5 67.4167 28.5Z" fill="#5CB338"/>
</svg>
