<svg width="100" height="100" viewBox="0 0 100 100" fill="none" xmlns="http://www.w3.org/2000/svg">
<path d="M90.625 50C90.625 60.7744 86.3449 71.1076 78.7262 78.7262C71.1076 86.3449 60.7744 90.625 50 90.625C39.2256 90.625 28.8925 86.3449 21.2738 78.7262C13.6551 71.1076 9.375 60.7744 9.375 50C9.375 39.2256 13.6551 28.8925 21.2738 21.2738C28.8925 13.6551 39.2256 9.375 50 9.375C60.7744 9.375 71.1076 13.6551 78.7262 21.2738C86.3449 28.8925 90.625 39.2256 90.625 50ZM50 0C36.7392 0 24.0215 5.26784 14.6447 14.6447C5.26784 24.0215 0 36.7392 0 50C0 63.2608 5.26784 75.9785 14.6447 85.3553C24.0215 94.7322 36.7392 100 50 100C63.2608 100 75.9785 94.7322 85.3553 85.3553C94.7322 75.9785 100 63.2608 100 50C100 36.7392 94.7322 24.0215 85.3553 14.6447C75.9785 5.26784 63.2608 0 50 0ZM34.375 46.875C36.0326 46.875 37.6223 46.2165 38.7944 45.0444C39.9665 43.8723 40.625 42.2826 40.625 40.625C40.625 38.9674 39.9665 37.3777 38.7944 36.2056C37.6223 35.0335 36.0326 34.375 34.375 34.375C32.7174 34.375 31.1277 35.0335 29.9556 36.2056C28.7835 37.3777 28.125 38.9674 28.125 40.625C28.125 42.2826 28.7835 43.8723 29.9556 45.0444C31.1277 46.2165 32.7174 46.875 34.375 46.875ZM71.875 40.625C71.875 38.9674 71.2165 37.3777 70.0444 36.2056C68.8723 35.0335 67.2826 34.375 65.625 34.375C63.9674 34.375 62.3777 35.0335 61.2056 36.2056C60.0335 37.3777 59.375 38.9674 59.375 40.625C59.375 42.2826 60.0335 43.8723 61.2056 45.0444C62.3777 46.2165 63.9674 46.875 65.625 46.875C67.2826 46.875 68.8723 46.2165 70.0444 45.0444C71.2165 43.8723 71.875 42.2826 71.875 40.625ZM35.9375 62.5C33.3398 62.5 31.25 64.5898 31.25 67.1875C31.25 69.7852 33.3398 71.875 35.9375 71.875H64.0625C66.6602 71.875 68.75 69.7852 68.75 67.1875C68.75 64.5898 66.6602 62.5 64.0625 62.5H35.9375Z" fill="#FF6600"/>
</svg>
